<svg width="20" height="21" viewBox="0 0 20 21" fill="none" xmlns="http://www.w3.org/2000/svg">
<path d="M10.7269 0.288033C10.3468 -0.0926744 9.63781 -0.0926744 9.25764 0.288033L0.308246 9.26038C0.102749 9.45588 0 9.71311 0 9.99093C0 10.2687 0.102749 10.526 0.308246 10.7318C0.69869 11.1228 1.36656 11.133 1.77755 10.7318L8.96995 3.52919V18.9633C8.96995 19.5498 9.42204 20.0025 10.0077 20.0025C10.5934 20.0025 11.0455 19.5498 11.0455 18.9633V3.52919L18.2379 10.7318C18.6386 11.133 19.2962 11.133 19.7072 10.7318C20.0976 10.3408 20.0976 9.68225 19.7072 9.26038L10.7269 0.288033Z" fill="white"/>
</svg>
