<svg width="8" height="8" viewBox="0 0 8 8" fill="none" xmlns="http://www.w3.org/2000/svg">
<path fill-rule="evenodd" clip-rule="evenodd" d="M3.99178 7C3.84302 7 3.70083 6.93704 3.60806 6.82685L1.10317 3.86158C0.937605 3.66572 0.975344 3.38307 1.18741 3.23016C1.39948 3.07725 1.70553 3.11256 1.87085 3.30819L3.88222 5.68927L6.0701 1.26305C6.18186 1.03706 6.47038 0.93745 6.71532 1.04089C6.95977 1.1441 7.06763 1.41101 6.95587 1.63678L4.43491 6.73713C4.3643 6.88015 4.21773 6.97841 4.04875 6.99685C4.02976 6.99888 4.01077 7 3.99178 7Z" fill="white"/>
<path d="M3.99178 7C3.84302 7 3.70083 6.93704 3.60806 6.82685L1.10317 3.86158C0.937605 3.66572 0.975344 3.38307 1.18741 3.23016C1.39948 3.07725 1.70553 3.11256 1.87085 3.30819L3.88222 5.68927L6.0701 1.26305C6.18186 1.03706 6.47038 0.93745 6.71532 1.04089C6.95977 1.1441 7.06763 1.41101 6.95587 1.63678L4.43491 6.73713C4.3643 6.88015 4.21773 6.97841 4.04875 6.99685C4.02976 6.99888 4.01077 7 3.99178 7" stroke="white" stroke-width="0.5"/>
</svg>
