<svg width="8" height="9" viewBox="0 0 8 9" fill="none" xmlns="http://www.w3.org/2000/svg">
<path fill-rule="evenodd" clip-rule="evenodd" d="M2.71671 4.00114L0.265985 6.45257C0.0939197 6.62469 -0.000681818 6.85371 3.69967e-06 7.09509C3.69967e-06 7.33303 0.0973473 7.56686 0.265985 7.73554C0.619027 8.08937 1.19486 8.08937 1.54859 7.73554L4 5.28411L6.45073 7.73554C6.62279 7.90766 6.85107 8.00229 7.09443 8.0016C7.33642 8.0016 7.56333 7.90629 7.73333 7.73554C8.08775 7.3824 8.08775 6.8064 7.73333 6.45257L5.28261 4.00114L7.73333 1.54903C7.9054 1.3776 8 1.14857 8 0.905829C7.99931 0.664457 7.90471 0.437486 7.73608 0.2688C7.7347 0.266743 7.73402 0.266057 7.73265 0.265371C7.56195 0.0946286 7.33573 0.000685714 7.09443 0C6.85039 0 6.62279 0.0946286 6.45073 0.266057L4 2.71817L1.54859 0.266057C1.19486 -0.0877714 0.619027 -0.0877714 0.265985 0.266057C0.0952907 0.4368 0.000689218 0.663771 3.69967e-06 0.909943C0.000689218 1.15131 0.0952907 1.37897 0.265985 1.54903L2.71671 4.00114Z" fill="#28292D"/>
</svg>
