<svg width="18" height="19" viewBox="0 0 18 19" fill="none" xmlns="http://www.w3.org/2000/svg">
<path fill-rule="evenodd" clip-rule="evenodd" d="M6.1126 9.00257L0.598466 14.5183C0.211319 14.9055 -0.00153409 15.4209 8.32425e-06 15.9639C8.32425e-06 16.4993 0.219031 17.0254 0.598466 17.405C1.39281 18.2011 2.68844 18.2011 3.48433 17.405L9 11.8893L14.5141 17.405C14.9013 17.7922 15.4149 18.0051 15.9625 18.0036C16.5069 18.0036 17.0175 17.7891 17.4 17.405C18.1974 16.6104 18.1974 15.3144 17.4 14.5183L11.8859 9.00257L17.4 3.48531C17.7871 3.0996 18 2.58429 18 2.03811C17.9985 1.49503 17.7856 0.984343 17.4062 0.6048C17.4031 0.600171 17.4015 0.598629 17.3985 0.597086C17.0144 0.212914 16.5054 0.00154286 15.9625 0C15.4134 0 14.9013 0.212914 14.5141 0.598629L9 6.11589L3.48433 0.598629C2.68844 -0.197486 1.39281 -0.197486 0.598466 0.598629C0.214404 0.9828 0.00155074 1.49349 8.32425e-06 2.04737C0.00155074 2.59046 0.214404 3.10269 0.598466 3.48531L6.1126 9.00257Z" fill="white"/>
</svg>
