<svg width="15" height="15" viewBox="0 0 15 15" fill="none" xmlns="http://www.w3.org/2000/svg">
<path d="M7.5 0C3.36467 0 0 3.36467 0 7.5C0 11.6353 3.36467 15 7.5 15C11.6353 15 15 11.6353 15 7.5C15 3.36467 11.6353 0 7.5 0Z" fill="#D93439"/>
<path d="M7.4999 9.08895C7.97041 9.08895 8.35184 8.70752 8.35184 8.237V4.20587C8.35184 3.72802 7.97819 3.35437 7.50034 3.35437C7.0225 3.35437 6.64795 3.72802 6.64795 4.20587V8.237C6.64795 8.70752 7.02938 9.08895 7.49989 9.08895H7.4999Z" fill="white"/>
<path d="M7.49989 11.6448H7.4999C7.97041 11.6448 8.35184 11.2634 8.35184 10.7929V10.7929C8.35184 10.3223 7.97041 9.94092 7.4999 9.94092H7.49989C7.02938 9.94092 6.64795 10.3223 6.64795 10.7929V10.7929C6.64795 11.2634 7.02938 11.6448 7.49989 11.6448Z" fill="white"/>
</svg>
