<svg width="30" height="30" viewBox="0 0 30 30" fill="none" xmlns="http://www.w3.org/2000/svg">
<path fill-rule="evenodd" clip-rule="evenodd" d="M18.4975 12.3192L18.315 14.6883H15.8859V22.9167H12.8167V14.6883H11.1792V12.3192H12.8167V10.7283C12.8167 10.0267 12.8342 8.94499 13.3434 8.27499C13.8809 7.56582 14.6184 7.08332 15.8859 7.08332C17.9525 7.08332 18.8225 7.37749 18.8225 7.37749L18.4125 9.80165C18.4125 9.80165 17.73 9.60499 17.0934 9.60499C16.4567 9.60499 15.8859 9.83332 15.8859 10.4692V12.3192H18.4975ZM15 0C6.715 0 0 6.715 0 15C0 23.2833 6.715 30 15 30C23.2842 30 30 23.2833 30 15C30 6.715 23.2842 0 15 0Z" fill="#AEAFB7"/>
</svg>
