<svg width="23" height="21" viewBox="0 0 23 21" fill="none" xmlns="http://www.w3.org/2000/svg">
<path fill-rule="evenodd" clip-rule="evenodd" d="M5.80461 12.0138C4.92643 12.0138 4.21343 11.2998 4.21343 10.4227C4.21343 9.54449 4.92643 8.82939 5.80461 8.82939C6.68279 8.82939 7.39579 9.54449 7.39579 10.4227C7.39579 11.2998 6.68279 12.0138 5.80461 12.0138ZM20.4283 9.37549L9.07469 9.36713L9.05587 9.31277C8.57497 7.91186 7.26919 6.97095 5.80556 6.97095C4.34401 6.97095 3.03928 7.90977 2.55733 9.30649L2.53851 9.36086H1.25574C0.699557 9.36086 0.264648 9.8219 0.264648 10.4126C0.264648 11.0033 0.699557 11.4664 1.25574 11.4664L2.53433 11.4674L2.55315 11.5208C3.02988 12.9269 4.33774 13.8709 5.80556 13.8709C7.27233 13.8709 8.57915 12.929 9.05692 11.526L9.07574 11.4716L20.4283 11.481C20.9856 11.481 21.4215 11.0189 21.4215 10.4283C21.4215 9.83758 20.9856 9.37549 20.4283 9.37549Z" fill="#28292D"/>
<path fill-rule="evenodd" clip-rule="evenodd" d="M18.9785 5.30944C18.1014 5.30944 17.3873 4.59331 17.3873 3.71722C17.3873 2.83903 18.1014 2.12499 18.9785 2.12499C19.8567 2.12499 20.5707 2.83903 20.5707 3.71722C20.5707 4.59331 19.8567 5.30944 18.9785 5.30944ZM18.9793 0.267029C17.5146 0.267029 16.2067 1.21003 15.7279 2.61407L15.7091 2.66739H15.6516L1.25672 2.65589C0.700534 2.65589 0.265625 3.11798 0.265625 3.70971C0.265625 4.29935 0.700534 4.76248 1.25672 4.76248L15.7122 4.77398L15.731 4.82835C16.2109 6.22717 17.5167 7.16598 18.9793 7.16598C20.882 7.16598 22.4303 5.61976 22.4303 3.71703C22.4303 1.8143 20.882 0.267029 18.9793 0.267029Z" fill="#28292D"/>
<path fill-rule="evenodd" clip-rule="evenodd" d="M10.8414 18.7166C9.96322 18.7166 9.24917 18.0026 9.24917 17.1254C9.24917 16.2483 9.96322 15.5332 10.8414 15.5332C11.7185 15.5332 12.4326 16.2483 12.4326 17.1254C12.4326 18.0026 11.7185 18.7166 10.8414 18.7166ZM20.4283 16.0779L14.1117 16.0727L14.0929 16.0194C13.6151 14.6153 12.3093 13.6744 10.8426 13.6744C9.37997 13.6744 8.07315 14.6132 7.59329 16.0131L7.57447 16.0675L1.25574 16.0622C0.699558 16.0622 0.264648 16.5243 0.264648 17.115C0.264648 17.7057 0.699558 18.1699 1.25574 18.1699L7.57238 18.174L7.59119 18.2274C8.06897 19.6304 9.37683 20.5734 10.8426 20.5734C12.3051 20.5734 13.612 19.6325 14.0918 18.2326L14.1106 18.1793L20.4283 18.1845C20.9845 18.1845 21.4205 17.7224 21.4205 17.1296C21.4205 16.54 20.9845 16.0779 20.4283 16.0779Z" fill="#28292D"/>
</svg>
