<svg width="10" height="16" viewBox="0 0 10 16" fill="none" xmlns="http://www.w3.org/2000/svg">
<path fill-rule="evenodd" clip-rule="evenodd" d="M5.36881 6.98559L9.62566 2.72954C10.1224 2.22882 10.1216 1.41497 9.62407 0.915049C9.12971 0.422285 8.3405 0.415131 7.82627 0.896769L1.35993 7.36232C1.1207 7.59996 0.984 7.93138 0.984 8.26996C0.984 8.60535 1.12547 8.94632 1.35993 9.17839L7.8072 15.6265C8.05835 15.8752 8.38659 16 8.71484 16C9.04388 16 9.37292 15.8752 9.62407 15.6249C9.86648 15.3817 10 15.0598 10 14.7172C10 14.3739 9.86648 14.052 9.62407 13.8088L5.36881 9.55432L4.05504 8.26121L5.36881 6.98559Z" fill="#28292D"/>
</svg>
