<svg width="18" height="18" viewBox="0 0 18 18" fill="none" xmlns="http://www.w3.org/2000/svg">
<path d="M17.9913 0.597479C17.9837 0.544538 17.9761 0.491597 17.9535 0.431092L17.9383 0.393277C17.8627 0.242017 17.7341 0.121008 17.5753 0.0453782C17.5073 0.0226891 17.4468 0.0151261 17.4241 0.0151261C17.3938 0.00756303 17.356 0 17.3031 0H6.23909C6.05003 0 5.86853 0.0756303 5.73996 0.204202L0.204188 5.74034C0.128563 5.81597 0.0680628 5.92941 0.0302501 6.05042C0.0226876 6.07311 0.0226876 6.10336 0.0151251 6.14118C0.00756253 6.1563 0 6.19412 0 6.23193V17.3042C0 17.6899 0.317626 18 0.695753 18H11.7673C11.8581 18 11.9488 17.9849 12.032 17.9471C12.1152 17.9092 12.1908 17.8639 12.2589 17.7958L17.7871 12.2597C17.9156 12.1311 17.9913 11.9496 17.9913 11.7605V0.695798C18.0064 0.657983 17.9988 0.627731 17.9913 0.597479ZM11.0715 6.93529V16.6084H1.39907V6.93529H11.0715ZM15.6166 1.39916L11.4799 5.53613H2.38976L6.52647 1.39916H15.6166ZM16.6073 2.38992V11.4807L12.4706 15.6176V6.52689L16.6073 2.38992Z" fill="#28292D"/>
</svg>
