<svg width="10" height="16" viewBox="0 0 10 16" fill="none" xmlns="http://www.w3.org/2000/svg">
<path fill-rule="evenodd" clip-rule="evenodd" d="M4.63119 9.01441L0.374342 13.2705C-0.122396 13.7712 -0.121602 14.585 0.375932 15.085C0.870286 15.5777 1.6595 15.5849 2.17373 15.1032L8.64007 8.63768C8.8793 8.40004 9.016 8.06862 9.016 7.73004C9.016 7.39465 8.87453 7.05368 8.64007 6.82161L2.1928 0.373547C1.94165 0.124781 1.61341 0 1.28516 0C0.956122 0 0.627082 0.124781 0.375932 0.375137C0.133523 0.61834 0 0.940226 0 1.28278C0 1.62612 0.133523 1.94801 0.375932 2.19121L4.63119 6.44568L5.94496 7.73879L4.63119 9.01441Z" fill="#28292D"/>
</svg>
