<svg width="10" height="10" viewBox="0 0 10 10" fill="none" xmlns="http://www.w3.org/2000/svg">
<path fill-rule="evenodd" clip-rule="evenodd" d="M3.39589 5.00043L0.332481 8.0641C0.1174 8.2792 -0.000852273 8.56543 4.62459e-06 8.86708C4.62459e-06 9.16445 0.121684 9.45668 0.332481 9.66749C0.773783 10.1097 1.49358 10.1097 1.93574 9.66749L5 6.60382L8.06341 9.66749C8.27849 9.88259 8.56384 10.0009 8.86804 9.99999C9.17052 9.99999 9.45416 9.88088 9.66667 9.66749C10.1097 9.22615 10.1097 8.50629 9.66667 8.0641L6.60326 5.00043L9.66667 1.9359C9.88175 1.72165 10 1.43543 10 1.13206C9.99914 0.830405 9.88089 0.546748 9.67009 0.335933C9.66838 0.333362 9.66752 0.332505 9.66581 0.331648C9.45244 0.118262 9.16967 0.000856971 8.86804 0C8.56298 0 8.27849 0.118262 8.06341 0.332505L5 3.39703L1.93574 0.332505C1.49358 -0.109692 0.773783 -0.109692 0.332481 0.332505C0.119113 0.545891 0.000861522 0.829548 4.62459e-06 1.1372C0.000861522 1.43885 0.119113 1.72337 0.332481 1.9359L3.39589 5.00043Z" fill="#28292D"/>
</svg>
