<svg width="10" height="6" viewBox="0 0 10 6" fill="none" xmlns="http://www.w3.org/2000/svg">
<path fill-rule="evenodd" clip-rule="evenodd" d="M5.83096 3.00432L8.58399 5.75786C8.90788 6.07917 9.43432 6.07866 9.75769 5.75683C10.0764 5.43706 10.0811 4.92655 9.76951 4.59393L5.58728 0.41118C5.43356 0.256434 5.21918 0.168008 5.00017 0.168008C4.78322 0.168008 4.56267 0.259519 4.41255 0.41118L0.241629 4.58159C0.0807143 4.74404 0 4.95637 0 5.16869C0 5.38153 0.0807143 5.59437 0.242657 5.75683C0.399973 5.91363 0.608185 6 0.829763 6C1.05186 6 1.26007 5.91363 1.41738 5.75683L4.16938 3.00432L5.00583 2.1545L5.83096 3.00432Z" fill="#28292D"/>
</svg>
