<svg width="35" height="31" viewBox="0 0 35 31" fill="none" xmlns="http://www.w3.org/2000/svg">
<path fill-rule="evenodd" clip-rule="evenodd" d="M7.95514 19.1213H22.4033C23.1958 19.1213 23.8166 18.4988 23.8166 17.7079C23.8166 16.917 23.1958 16.2962 22.4033 16.2962H7.95514C7.16584 16.2962 6.54498 16.917 6.54498 17.7079C6.54498 18.4988 7.16584 19.1213 7.95514 19.1213Z" fill="white"/>
<path d="M7.95514 19.1213H22.4033C23.1958 19.1213 23.8166 18.4988 23.8166 17.7079C23.8166 16.917 23.1958 16.2962 22.4033 16.2962H7.95514C7.16584 16.2962 6.54498 16.917 6.54498 17.7079C6.54498 18.4988 7.16584 19.1213 7.95514 19.1213" stroke="#3E3EBA" stroke-width="0.5"/>
<path fill-rule="evenodd" clip-rule="evenodd" d="M7.95514 13.9544H22.4033C23.1958 13.9544 23.8166 13.3336 23.8166 12.5426C23.8166 11.7517 23.1958 11.1293 22.4033 11.1293H7.95514C7.16584 11.1293 6.54498 11.7517 6.54498 12.5426C6.54498 13.3336 7.16584 13.9544 7.95514 13.9544Z" fill="white"/>
<path d="M7.95514 13.9544H22.4033C23.1958 13.9544 23.8166 13.3336 23.8166 12.5426C23.8166 11.7517 23.1958 11.1293 22.4033 11.1293H7.95514C7.16584 11.1293 6.54498 11.7517 6.54498 12.5426C6.54498 13.3336 7.16584 13.9544 7.95514 13.9544" stroke="#3E3EBA" stroke-width="0.5"/>
<path fill-rule="evenodd" clip-rule="evenodd" d="M32.6397 0.722168H7.60334C6.81082 0.722168 6.19318 1.34302 6.19318 2.13393C6.19318 2.92484 6.81082 3.5457 7.60334 3.5457H31.2279V18.5473C31.2279 19.3382 31.8488 19.9575 32.6397 19.9575C33.4306 19.9575 34.0531 19.3382 34.0531 18.5473V2.13393C34.0531 1.34302 33.4306 0.722168 32.6397 0.722168Z" fill="white"/>
<path d="M32.6397 0.722168H7.60334C6.81082 0.722168 6.19318 1.34302 6.19318 2.13393C6.19318 2.92484 6.81082 3.5457 7.60334 3.5457H31.2279V18.5473C31.2279 19.3382 31.8488 19.9575 32.6397 19.9575C33.4306 19.9575 34.0531 19.3382 34.0531 18.5473V2.13393C34.0531 1.34302 33.4306 0.722168 32.6397 0.722168" stroke="#3E3EBA" stroke-width="0.5"/>
<path fill-rule="evenodd" clip-rule="evenodd" d="M26.9683 22.7858H11.8495C11.5495 22.7858 11.2479 22.8821 10.9912 23.0666L7.60462 25.6511V24.1976C7.60462 23.4067 6.98537 22.7858 6.19446 22.7858H3.36772V7.7794H26.9683V22.7858ZM28.4041 4.95908H1.95756C1.16665 4.95908 0.544189 5.57833 0.544189 6.37084V24.1976C0.544189 24.9757 1.17948 25.6093 1.95756 25.6093H4.78109V28.5083C4.78109 29.0489 5.0843 29.535 5.57039 29.7773C5.75809 29.8735 5.96184 29.9184 6.19446 29.9184C6.49285 29.9184 6.79606 29.8238 7.05275 29.6393L12.3292 25.6334H28.4041C29.195 25.6334 29.8158 25.0142 29.8158 24.2232V6.37084C29.8158 5.57833 29.195 4.95908 28.4041 4.95908Z" fill="white"/>
<path d="M26.9683 22.7858V23.0358H27.2183V22.7858H26.9683ZM10.9912 23.0666L10.8453 22.8635L10.8396 22.8678L10.9912 23.0666ZM7.60462 25.6511H7.35462V26.1563L7.75628 25.8498L7.60462 25.6511ZM3.36772 22.7858H3.11772V23.0358H3.36772V22.7858ZM3.36772 7.7794V7.5294H3.11772V7.7794H3.36772ZM26.9683 7.7794H27.2183V7.5294H26.9683V7.7794ZM4.78109 25.6093H5.03109V25.3593H4.78109V25.6093ZM5.57039 29.7773L5.68448 29.5548L5.6819 29.5535L5.57039 29.7773ZM7.05275 29.6393L7.1987 29.8424L7.20392 29.8384L7.05275 29.6393ZM12.3292 25.6334V25.3834H12.2451L12.178 25.4343L12.3292 25.6334ZM26.9683 22.5358H11.8495V23.0358H26.9683V22.5358ZM11.8495 22.5358C11.4963 22.5358 11.1438 22.6491 10.8453 22.8636L11.1372 23.2696C11.3521 23.1151 11.6028 23.0358 11.8495 23.0358V22.5358ZM10.8396 22.8678L7.45295 25.4523L7.75628 25.8498L11.1429 23.2653L10.8396 22.8678ZM7.85462 25.6511V24.1976H7.35462V25.6511H7.85462ZM7.85462 24.1976C7.85462 23.269 7.12381 22.5358 6.19446 22.5358V23.0358C6.84692 23.0358 7.35462 23.5444 7.35462 24.1976H7.85462ZM6.19446 22.5358H3.36772V23.0358H6.19446V22.5358ZM3.61772 22.7858V7.7794H3.11772V22.7858H3.61772ZM3.36772 8.0294H26.9683V7.5294H3.36772V8.0294ZM26.7183 7.7794V22.7858H27.2183V7.7794H26.7183ZM28.4041 4.70908H1.95756V5.20908H28.4041V4.70908ZM1.95756 4.70908C1.02914 4.70908 0.294189 5.4397 0.294189 6.37084H0.794189C0.794189 5.71696 1.30416 5.20908 1.95756 5.20908V4.70908ZM0.294189 6.37084V24.1976H0.794189V6.37084H0.294189ZM0.294189 24.1976C0.294189 25.1141 1.04178 25.8593 1.95756 25.8593V25.3593C1.31718 25.3593 0.794189 24.8372 0.794189 24.1976H0.294189ZM1.95756 25.8593H4.78109V25.3593H1.95756V25.8593ZM4.53109 25.6093V28.5083H5.03109V25.6093H4.53109ZM4.53109 28.5083C4.53109 29.1447 4.88883 29.7169 5.45888 30.001L5.6819 29.5535C5.27976 29.3531 5.03109 28.9531 5.03109 28.5083H4.53109ZM5.45631 29.9997C5.68398 30.1165 5.92776 30.1684 6.19446 30.1684V29.6684C5.99592 29.6684 5.83221 29.6306 5.68447 29.5548L5.45631 29.9997ZM6.19446 30.1684C6.54512 30.1684 6.89939 30.0574 7.19865 29.8423L6.90684 29.4363C6.69274 29.5902 6.44058 29.6684 6.19446 29.6684V30.1684ZM7.20392 29.8384L12.4804 25.8325L12.178 25.4343L6.90158 29.4402L7.20392 29.8384ZM12.3292 25.8834H28.4041V25.3834H12.3292V25.8834ZM28.4041 25.8834C29.3327 25.8834 30.0658 25.1526 30.0658 24.2232H29.5658C29.5658 24.8757 29.0573 25.3834 28.4041 25.3834V25.8834ZM30.0658 24.2232V6.37084H29.5658V24.2232H30.0658ZM30.0658 6.37084C30.0658 5.44007 29.3329 4.70908 28.4041 4.70908V5.20908C29.0571 5.20908 29.5658 5.71658 29.5658 6.37084H30.0658Z" fill="#3E3EBA"/>
</svg>
