<svg width="10" height="6" viewBox="0 0 10 6" fill="none" xmlns="http://www.w3.org/2000/svg">
<path fill-rule="evenodd" clip-rule="evenodd" d="M4.16904 2.99568L1.41601 0.242143C1.09212 -0.079172 0.565682 -0.0786579 0.242311 0.243171C-0.0764322 0.562944 -0.0810604 1.07345 0.230487 1.40607L4.41272 5.58882C4.56644 5.74357 4.78082 5.83199 4.99983 5.83199C5.21678 5.83199 5.43733 5.74048 5.58745 5.58882L9.75837 1.41841C9.91929 1.25596 10 1.04363 10 0.831306C10 0.618467 9.91929 0.405628 9.75734 0.243171C9.60003 0.0863694 9.39182 0 9.17024 0C8.94814 0 8.73993 0.0863694 8.58262 0.243171L5.83062 2.99568L4.99417 3.8455L4.16904 2.99568Z" fill="#28292D"/>
</svg>
