<svg width="18" height="20" viewBox="0 0 18 20" fill="none" xmlns="http://www.w3.org/2000/svg">
<g>
<path d="M17.3255 14.3123H0.68444C0.306466 14.3123 0 14.6203 0 15.0001V19.3121C0 19.6817 0.316681 20 0.68444 20H17.3153C17.7035 20 17.9998 19.692 17.9998 19.3121V15.0001C18.01 14.6203 17.7035 14.3123 17.3255 14.3123ZM16.6309 15.6983V18.6345H1.3791V15.6983H16.6309Z" fill="#28292D"/>
<path d="M17.3255 7.15564H0.68444C0.306466 7.15564 0 7.46364 0 7.84351V12.1555C0 12.5251 0.316681 12.8434 0.68444 12.8434H17.3153C17.7035 12.8434 17.9998 12.5354 17.9998 12.1555V7.84351C18.01 7.46364 17.7035 7.15564 17.3255 7.15564ZM16.6309 8.54165V11.4779H1.3791V8.54165H16.6309Z" fill="#28292D"/>
<path d="M17.3255 0H0.68444C0.306466 0 0 0.308001 0 0.68787V4.99989C0 5.36949 0.316681 5.68776 0.68444 5.68776H17.3153C17.7035 5.68776 17.9998 5.37976 17.9998 4.99989V0.68787C18.01 0.308001 17.7035 0 17.3255 0ZM16.6309 1.37574V4.31202H1.3791V1.37574H16.6309Z" fill="#28292D"/>
</g>
</svg>
