<svg width="13" height="13" viewBox="0 0 13 13" fill="none" xmlns="http://www.w3.org/2000/svg">
<path d="M12.731 11.4228L12.7296 11.4215L9.39746 8.09613C9.97382 7.2641 10.3332 6.25934 10.3332 5.1651V5.16309C10.3217 2.3139 8.01215 0 5.16119 0C2.31103 0 0 2.31403 0 5.1651C0 8.01691 2.31097 10.331 5.16119 10.331C6.25507 10.331 7.25299 9.97791 8.09094 9.39465L11.4231 12.7289C11.6004 12.9063 11.8307 13 12.0764 13C12.304 13 12.5478 12.9113 12.7301 12.7289L12.7305 12.7285C13.0901 12.3678 13.0894 11.7834 12.731 11.4228ZM5.16119 1.83832C6.99323 1.83832 8.48602 3.3316 8.48602 5.1651C8.48602 6.99988 6.9931 8.4931 5.16119 8.4931C3.32977 8.4931 1.83722 6.99994 1.83722 5.1651C1.83722 3.33148 3.32971 1.83832 5.16119 1.83832Z" fill="white"/>
</svg>
