<svg width="18" height="11" viewBox="0 0 18 11" fill="none" xmlns="http://www.w3.org/2000/svg">
<path d="M17.7863 4.9494L17.7137 5.02203L17.7767 4.9398C17.034 4.11463 13.117 0 9 0C4.88937 0 0.96603 4.11623 0.213695 4.9494C0.0736329 5.08946 0 5.26794 0 5.46563C0 5.66332 0.0736329 5.8418 0.214495 5.98186C0.2233 5.99066 0.242508 6.01147 0.271321 6.04188C1.64393 7.51214 5.24313 10.9305 9 10.9305C13.0922 10.9305 17.0268 6.81903 17.7863 5.98186C17.9264 5.8418 18 5.66332 18 5.46563C18 5.26794 17.9264 5.08946 17.7863 4.9494ZM16.1984 5.44962C16.124 5.51605 16.0431 5.58888 15.9567 5.66732C14.5921 6.89747 11.7532 9.457 9 9.457C6.24598 9.457 3.40631 6.89667 2.04251 5.66652C1.95527 5.58888 1.87443 5.51605 1.8008 5.44962C1.87523 5.38319 1.95687 5.30956 2.04411 5.23112C3.40872 4.00098 6.24758 1.44304 9 1.44304C11.7516 1.44304 14.5905 4.00098 15.9543 5.23032C16.0423 5.30956 16.124 5.38319 16.1984 5.44962Z" fill="white"/>
<path d="M6.22925 5.44961C6.22925 6.9855 7.4794 8.23565 9.01529 8.23565C10.5512 8.23565 11.8013 6.9855 11.8013 5.44961C11.8013 3.91373 10.5512 2.66357 9.01529 2.66357C7.4794 2.66357 6.22925 3.91373 6.22925 5.44961ZM8.99528 4.16024C9.70759 4.18025 10.2871 4.75891 10.2871 5.44961C10.2871 6.16113 9.70839 6.73979 8.99688 6.73979C8.28616 6.73979 7.70751 6.16113 7.70751 5.44961C7.70751 4.72689 8.27336 4.16104 8.99528 4.16024Z" fill="white"/>
</svg>
