<svg width="13" height="17" viewBox="0 0 13 17" fill="none" xmlns="http://www.w3.org/2000/svg">
<path fill-rule="evenodd" clip-rule="evenodd" d="M4.67481 9.32414H8.32837C10.0668 9.32414 11.4821 10.8079 11.4821 12.6333V15.4069H1.51794V12.6366C1.51794 10.8095 2.93399 9.32414 4.67481 9.32414ZM6.5 7.39265C5.29011 7.39265 4.30707 6.09273 4.30707 4.49373C4.30707 2.89474 5.29011 1.59398 6.5 1.59398C7.70989 1.59398 8.69293 2.89474 8.69293 4.49373C8.69293 6.09273 7.70989 7.39265 6.5 7.39265ZM9.02088 7.7878C9.78104 6.93985 10.2117 5.75856 10.2117 4.49373C10.2117 2.01587 8.54647 0 6.5 0C4.45353 0 2.78833 2.01587 2.78833 4.49373C2.78833 5.75856 3.21896 6.93985 3.97912 7.78864C1.72251 8.14703 0 10.2105 0 12.6366V15.5188C0 16.3358 0.633603 17 1.41128 17H11.5887C12.3664 17 13 16.3358 13 15.5188V12.6333C13 10.208 11.2783 8.14536 9.02088 7.7878Z" fill="#AEAFB7"/>
</svg>
