<svg width="362" height="177" viewBox="0 0 362 177" fill="none" xmlns="http://www.w3.org/2000/svg">
<path d="M167.679 18.0396L184.538 28.2233C184.538 28.2233 202.031 33.1445 207.873 32.2058C212.731 31.4093 224.732 22.9324 224.732 22.9324L195.174 1.22803H128.374C126.088 2.96324 125.58 9.22136 126.31 11.81C127.072 14.5408 134.597 21.3394 134.597 20.2869C134.597 19.2344 133.994 11.0135 133.994 11.0135L142.566 6.51899L157.361 10.5014L159.424 16.8449L162.663 9.16447L169.743 12.6064L167.679 18.0396Z" stroke="#28292D" stroke-width="1.5" stroke-miterlimit="10" stroke-linecap="round" stroke-linejoin="round"/>
<path d="M215.684 28.5071C215.684 28.5071 231.241 33.8265 234.987 37.8658C240.543 43.8395 246.067 62.9268 246.036 70.6925C245.972 79.5108 238.543 102.637 238.543 102.637L228.701 119.591L221.208 112.878L215.874 94.957" stroke="#28292D" stroke-width="1.5" stroke-miterlimit="10" stroke-linecap="round" stroke-linejoin="round"/>
<path d="M193.586 48.619L202.063 51.2645L205.206 63.0981C205.206 63.0981 197.428 69.8113 195.745 72.6275C194.729 74.3627 193.586 80.2226 193.586 80.2226C193.586 80.2226 187.427 86.5945 186.506 89.24C185.236 92.8526 186.506 104.43 186.506 104.43C186.506 104.43 180.823 108.498 179.807 110.432C178.855 112.253 179.014 118.369 179.014 118.369C179.014 118.369 173.902 120.787 173.108 122.266C172.346 123.66 173.299 128.439 173.299 128.439L158.123 130.913L145.328 124.741L137.645 115.922L128.184 91.9139L117.738 70.5509L120.881 65.0893C120.881 65.0893 129.898 66.9952 132.692 66.1418C140.756 63.667 147.677 69.1571 147.677 69.1571L153.392 76.5815L151.424 81.3604C151.424 81.3604 160.377 70.1242 174.188 68.5597C188.284 66.9667 195.777 72.7128 195.777 72.7128" stroke="#28292D" stroke-width="1.5" stroke-miterlimit="10" stroke-linecap="round" stroke-linejoin="round"/>
<path d="M134.601 20.2859L137.713 22.7891L137.554 29.1326L141.554 30.7256L141.999 34.4236L143.332 35.3623L142.602 38.8043L132.855 41.1937L125.172 39.3447C125.172 39.3447 115.711 43.0427 114.822 43.3272C113.933 43.5832 112.472 47.5656 112.472 47.5656L101.551 48.1061L95.0421 52.6006L89.1368 52.8566L85.2951 53.9091C85.2951 53.9091 84.3109 67.9614 86.0889 72.2568C91.8672 86.4514 127.458 119.932 127.458 119.932L126.283 134.042L129.045 140.044L128.664 145.704L131.426 150.284L134.188 134.753L148.761 150.995L154.666 161.236L153.492 147.809L159.397 149.232L160.191 145.704L163.747 146.046L169.652 152.759L164.54 154.523L163.366 159.814L173.621 156.628L177.557 145.676L184.637 131.197C184.637 131.197 198.353 110.261 205.115 105.055C208.29 102.609 213.91 98.1711 215.942 94.8998C217.91 91.7423 219.688 82.0991 219.688 82.0991C219.688 82.0991 227.594 75.841 228.356 72.9111C229.372 69.0139 223.212 61.3051 224.006 57.3795C224.355 55.7296 229.118 52.4299 229.118 52.4299" stroke="#28292D" stroke-width="1.5" stroke-miterlimit="10" stroke-linecap="round" stroke-linejoin="round"/>
<path d="M150.852 44.5228L160.917 43.7263L158.25 36.8424C158.25 36.8424 155.519 40.7964 153.964 41.2231C147.614 42.9583 142.598 38.8336 142.598 38.8336" stroke="#28292D" stroke-width="1.5" stroke-miterlimit="10" stroke-linecap="round" stroke-linejoin="round"/>
<path d="M238.513 102.638C243.339 114.016 237.148 137.058 237.148 137.058L308.964 175.972H71.3555L114.502 153.186L105.041 132.279C105.041 132.279 97.8975 123.062 96.4688 119.563C93.3257 111.883 90.5635 87.2485 90.5635 87.2485L87.6109 75.0736" stroke="#28292D" stroke-width="1.5" stroke-miterlimit="10" stroke-linecap="round" stroke-linejoin="round"/>
<path d="M1 133.9H34.1141L63.958 118.795" stroke="#28292D" stroke-width="1.5" stroke-miterlimit="10" stroke-linecap="round" stroke-linejoin="round"/>
<path d="M360.968 1H1.28522V176H360.968V1Z" stroke="#28292D" stroke-width="1.5" stroke-miterlimit="10" stroke-linecap="round" stroke-linejoin="round"/>
<path d="M107.389 157.453L82.2755 150.569L75.386 161.236C75.386 161.236 58.8765 156.713 55.6699 151.081C53.13 146.586 51.3203 135.72 54.7809 131.738C56.8764 129.348 65.9248 123.801 65.9248 123.801L61.9879 113.219L75.7669 102.637L85.6091 111.114L83.6407 131.937L96.4355 119.591" stroke="#28292D" stroke-width="1.5" stroke-miterlimit="10" stroke-linecap="round" stroke-linejoin="round"/>
<path d="M236.543 40.5119L239.718 34.14L238.924 26.0329L248.385 24.9804L253.497 28.849L256.259 27.4267V15.0811L266.514 18.6084L262.164 11.5538L281.087 8.73767L289.373 16.5034L290.135 10.1315L301.184 10.8427L301.565 17.8973L307.089 21.0832L316.963 18.6084L327.186 26.744L327.98 39.4309L320.106 53.5686L332.71 52.1463L339.028 39.8007L346.489 41.223L344.934 33.4288L352.014 35.2209L353.601 29.5602L360.999 36.9846" stroke="#28292D" stroke-width="1.5" stroke-miterlimit="10" stroke-linecap="round" stroke-linejoin="round"/>
</svg>
