<svg width="30" height="30" viewBox="0 0 30 30" fill="none" xmlns="http://www.w3.org/2000/svg">
<path fill-rule="evenodd" clip-rule="evenodd" d="M30 14.9991C30 23.284 23.285 30 15 30C6.7142 30 0 23.284 0 14.9991C0 6.71596 6.7142 0 15 0C23.285 0 30 6.71596 30 14.9991ZM19.5094 20.7412C20.3032 20.7412 20.947 20.0965 20.947 19.3036V13.1627H18.7078C18.9009 13.6389 19.0103 14.1584 19.0103 14.7025C19.0103 16.9638 17.1705 18.8044 14.9084 18.8044C12.6471 18.8044 10.8073 16.9638 10.8073 14.7025C10.8073 14.1584 10.9158 13.6389 11.1098 13.1627H8.87061V19.3036C8.87061 20.0965 9.51442 20.7412 10.3082 20.7412H19.5094ZM14.9087 12.062C14.0276 12.062 13.2489 12.4977 12.7691 13.1627C12.456 13.5966 12.269 14.1275 12.269 14.7025C12.269 16.1586 13.4535 17.3422 14.9087 17.3422C16.3648 17.3422 17.5492 16.1586 17.5492 14.7025C17.5492 14.1275 17.3631 13.5966 17.0492 13.1627C16.5694 12.4977 15.7897 12.062 14.9087 12.062ZM20.6735 8.93025L20.3419 8.93113L18.1309 8.93819L18.1388 11.4808L20.6735 11.4729V9.2601V8.93025ZM10.307 7.20249H19.5083C21.1073 7.20249 22.4072 8.50247 22.4072 10.1005V13.1626V19.3036C22.4072 20.9016 21.1073 22.2025 19.5083 22.2025H10.307C8.70809 22.2025 7.40723 20.9016 7.40723 19.3036V13.1626V10.1005C7.40723 8.50247 8.70809 7.20249 10.307 7.20249Z" fill="white"/>
</svg>
