<svg width="94" height="28" viewBox="0 0 94 28" fill="none" xmlns="http://www.w3.org/2000/svg">
<path fill-rule="evenodd" clip-rule="evenodd" d="M11.9511 13.3386L22.5923 0H15.4115L6.08619 12.4702V0H0V27.0968H6.08619V14.705L6.35402 15.0638L15.3727 27.0968H22.5962L11.8774 13.4327L11.9511 13.3386Z" fill="white"/>
<path fill-rule="evenodd" clip-rule="evenodd" d="M40.0691 27.0968H46.0961L38.6997 8.12903H31.3972L24.4038 27.0968H30.4739L35.2196 13.533L40.0691 27.0968Z" fill="white"/>
<path fill-rule="evenodd" clip-rule="evenodd" d="M55.7159 19.9007C56.7606 24.595 60.9529 28 65.685 28C71.3312 28 75.9231 23.3414 75.9231 17.6129C75.9231 11.8845 71.3312 7.22583 65.685 7.22583C60.9529 7.22583 56.7606 10.6328 55.7159 15.3271L55.6886 15.4457H52.7164V8.01084H47V27.217H52.7164V19.7821H55.6886L55.7159 19.9007ZM65.685 12.7941C68.3044 12.7941 70.4347 14.9553 70.4347 17.6129C70.4347 20.2705 68.3044 22.4317 65.685 22.4317C63.0655 22.4317 60.9353 20.2705 60.9353 17.6129C60.9353 14.9553 63.0655 12.7941 65.685 12.7941Z" fill="white"/>
<path fill-rule="evenodd" clip-rule="evenodd" d="M84.1221 21.8224H88.3393V27.0968H94V8.12903H88.3393V16.7238H82.564V8.12903H76.8269V15.3362C76.8269 17.466 77.4482 19.0953 78.6775 20.1796C79.9086 21.2696 81.742 21.8224 84.1221 21.8224Z" fill="white"/>
</svg>
