<svg width="10" height="15" viewBox="0 0 10 15" fill="none" xmlns="http://www.w3.org/2000/svg">
<path fill-rule="evenodd" clip-rule="evenodd" d="M4.99352 8.74645L0.863214 12.876C0.381242 13.3618 0.382013 14.1515 0.864757 14.6365C1.34442 15.1146 2.11017 15.1216 2.60911 14.6543L8.88323 8.38092C9.11535 8.15034 9.24799 7.82877 9.24799 7.50026C9.24799 7.17483 9.11072 6.84401 8.88323 6.61883L2.62762 0.362443C2.38393 0.121071 2.06545 0 1.74696 0C1.4277 0 1.10844 0.121071 0.864757 0.363985C0.629554 0.599959 0.5 0.912277 0.5 1.24464C0.5 1.57778 0.629554 1.8901 0.864757 2.12608L4.99352 6.25407L6.26824 7.50874L4.99352 8.74645Z" fill="#fff"/>
</svg>
