<svg width="13" height="17" viewBox="0 0 13 17" fill="none" xmlns="http://www.w3.org/2000/svg">
<path fill-rule="evenodd" clip-rule="evenodd" d="M0.0931951 8.2069C0.838756 11.5287 6.52366 17 6.52366 17C6.52366 17 12.1154 11.5287 12.8609 8.2069C13.6065 4.49425 11.2766 0.87931 7.73519 0.0977011C7.36241 0 6.89644 0 6.52366 0C2.88905 0 0 3.02874 0 6.83908C0 7.32759 0 7.71839 0.0931951 8.2069ZM6.50029 3.90805C7.91333 3.90805 9.00029 4.995 9.00029 6.40805C9.00029 7.82109 7.91333 8.90805 6.50029 8.90805C5.08724 8.90805 4.00029 7.82109 4.00029 6.40805C4.00029 4.995 5.08724 3.90805 6.50029 3.90805Z" fill="#28292D"/>
</svg>
