<svg width="10" height="15" viewBox="0 0 10 15" fill="none" xmlns="http://www.w3.org/2000/svg">
<path fill-rule="evenodd" clip-rule="evenodd" d="M5.00648 6.25355L9.13679 2.12402C9.61876 1.63819 9.61799 0.848524 9.13524 0.363467C8.65559 -0.114648 7.88983 -0.12159 7.39089 0.345731L1.11677 6.61908C0.884652 6.84966 0.752013 7.17123 0.752013 7.49974C0.752013 7.82517 0.889278 8.15599 1.11677 8.38117L7.37238 14.6376C7.61607 14.8789 7.93455 15 8.25304 15C8.5723 15 8.89156 14.8789 9.13524 14.636C9.37045 14.4 9.5 14.0877 9.5 13.7554C9.5 13.4222 9.37045 13.1099 9.13524 12.8739L5.00648 8.74593L3.73176 7.49126L5.00648 6.25355Z" fill="#fff"/>
</svg>
