<svg width="30" height="30" viewBox="0 0 30 30" fill="none" xmlns="http://www.w3.org/2000/svg">
<path fill-rule="evenodd" clip-rule="evenodd" d="M30 15C30 6.71551 23.2836 0 15.0006 0C6.71637 0 0 6.71551 0 15C0 23.2845 6.71637 30 15.0006 30C23.2836 30 30 23.2845 30 15ZM6.64595 13.4692L21.8125 7.54527C22.2914 7.35884 22.7843 7.7767 22.6804 8.27813L20.0458 20.9746C19.9076 21.641 19.1158 21.9281 18.5823 21.5049L12.6768 16.8249L12.746 16.7619L12.6758 16.8257L12.6758 16.8261L15.0342 18.6952L12.301 20.9157L12.3008 20.9175L12.3004 20.9162L12.299 20.9173L12.2993 20.9134C12.2421 20.7542 10.5419 16.0238 10.4977 15.9364L10.4977 15.9364L6.67273 14.6403C6.12204 14.4538 6.1049 13.6803 6.64595 13.4692ZM11.9795 15.0026L19.5572 10.2277C19.5466 10.2312 19.5358 10.2363 19.5251 10.2431L11.9795 15.0026Z" fill="#AEAFB7"/>
</svg>
