<svg width="11" height="15" viewBox="0 0 11 15" fill="none" xmlns="http://www.w3.org/2000/svg">
<path fill-rule="evenodd" clip-rule="evenodd" d="M2.75916 10.5368L7.68728 10.5468C7.98978 10.5468 8.22791 10.3087 8.22791 10.005C8.22791 9.70121 7.99103 9.46308 7.68728 9.46308L2.75916 9.45496C2.45541 9.45496 2.21729 9.69183 2.21729 9.99558C2.21729 10.2987 2.45541 10.5368 2.75916 10.5368Z" fill="white"/>
<path fill-rule="evenodd" clip-rule="evenodd" d="M2.75916 8.5745L7.68728 8.5845C7.98978 8.5845 8.22791 8.34638 8.22791 8.042C8.22791 7.73888 7.99103 7.50075 7.68728 7.50075L2.75916 7.492C2.45541 7.492 2.21729 7.7295 2.21729 8.03325C2.21729 8.33638 2.45541 8.5745 2.75916 8.5745Z" fill="white"/>
<path fill-rule="evenodd" clip-rule="evenodd" d="M1.08187 5.30063H9.36312V1.08312H1.08187V5.30063ZM1.08187 13.5138H9.36312V6.38375H1.08187V13.5138ZM9.905 0H0.54125C0.238125 0 0 0.238125 0 0.541875V14.055C0 14.3488 0.248125 14.5962 0.54125 14.5962H9.905C10.2081 14.5962 10.4456 14.3581 10.4456 14.055V0.541875C10.4456 0.238125 10.2081 0 9.905 0Z" fill="white"/>
</svg>
