<svg width="12" height="15" viewBox="0 0 12 15" fill="none" xmlns="http://www.w3.org/2000/svg">
<path d="M2.49104 11.3283L6.94302 11.3396C7.21985 11.3396 7.43454 11.1249 7.43454 10.8481C7.43454 10.5712 7.21985 10.3565 6.94302 10.3565L2.49104 10.3509C2.2142 10.3509 1.99951 10.5656 1.99951 10.8424C1.99951 11.1193 2.21985 11.3283 2.49104 11.3283Z" fill="white"/>
<path d="M2.49104 9.55998L6.94302 9.57128C7.21985 9.57128 7.43454 9.35659 7.43454 9.07976C7.43454 8.80292 7.21985 8.58823 6.94302 8.58823L2.49104 8.58258C2.2142 8.58258 1.99951 8.79727 1.99951 9.07411C1.99951 9.35094 2.21985 9.55998 2.49104 9.55998Z" fill="white"/>
<path d="M8.9548 1.80804H0.491525C0.214689 1.80804 0 2.02273 0 2.29392V14.5086C0 14.7741 0.225989 15.0001 0.491525 15.0001H8.9548C9.23164 15.0001 9.44633 14.7854 9.44633 14.5086V2.29392C9.44068 2.02273 9.22599 1.80804 8.9548 1.80804ZM8.46328 7.57641V14.0227H0.977401V7.57641H8.46328ZM8.46328 2.78545V6.59901H0.977401V2.78545H8.46328Z" fill="white"/>
<path d="M10.78 0H2.31672C2.04553 0 1.8252 0.220339 1.8252 0.491525C1.8252 0.762712 2.04553 0.983051 2.31672 0.983051H10.2941V4.79661V5.77401V12.7062C10.2941 12.9774 10.5145 13.1977 10.7856 13.1977C11.0568 13.1977 11.2772 12.9774 11.2772 12.7062V0.491525C11.2715 0.220339 11.0512 0 10.78 0Z" fill="white"/>
</svg>
