<svg width="30" height="30" viewBox="0 0 30 30" fill="none" xmlns="http://www.w3.org/2000/svg">
<path fill-rule="evenodd" clip-rule="evenodd" d="M23.3257 11.1517C23.134 11.6975 22.8507 12.1983 22.5215 12.6708C22.0215 13.3917 21.4999 14.0967 20.9957 14.815C20.8615 15.0075 20.7515 15.2192 20.649 15.4317C20.5632 15.6125 20.6099 15.7817 20.7632 15.915C20.8232 15.9683 20.8865 16.0183 20.9499 16.0683C21.8907 16.815 22.739 17.645 23.3257 18.71V19.1258C23.0549 19.785 22.7432 19.9925 22.0199 19.9925C21.5107 19.9925 21.0015 19.9758 20.4949 19.9983C20.1465 20.0142 19.8849 19.8942 19.6465 19.6542C19.2507 19.2575 18.8524 18.8625 18.4332 18.4917C18.1799 18.2667 17.8982 18.0675 17.6057 17.9C17.4574 17.815 17.2474 17.7742 17.079 17.8008C16.5049 17.8917 16.1207 18.3917 16.104 18.975C16.0974 19.2075 16.0599 19.445 15.9957 19.6692C15.9324 19.8858 15.764 20.0058 15.5215 19.9933C15.4115 19.9883 15.3015 19.9933 15.1915 19.9958C14.0082 20.0233 12.934 19.7033 11.989 18.9833C10.6765 17.9858 9.62653 16.7483 8.72486 15.38C7.93903 14.19 7.3857 12.8842 6.84903 11.5708C6.79486 11.4408 6.73153 11.3142 6.67236 11.1858V10.8042C6.8407 10.6183 7.05986 10.58 7.2982 10.5783C7.91653 10.5733 8.53486 10.5742 9.1532 10.5525C9.4557 10.5425 9.6807 10.6483 9.84653 10.8917C10.0315 11.1642 10.2165 11.4367 10.3915 11.715C10.9115 12.5392 11.4224 13.37 11.9474 14.1917C12.0732 14.3908 12.2257 14.5758 12.3865 14.7483C12.7324 15.1208 12.9732 15.0683 13.1165 14.5867C13.189 14.345 13.2465 14.0925 13.2607 13.8425C13.299 13.1567 13.3174 12.47 13.3315 11.7833C13.3415 11.295 13.1565 11.1142 12.669 11.1042C12.559 11.1025 12.449 11.1133 12.339 11.115C12.299 11.115 12.2574 11.1058 12.2024 11.1C12.2265 11.0608 12.2349 11.0383 12.2507 11.0225C12.8232 10.4233 13.5124 10.0533 14.349 10.0125C14.8615 9.9875 15.3774 10.0075 15.8915 10.0075C16.3207 10.0075 16.5457 10.16 16.6215 10.5817C16.6824 10.9258 16.6982 11.2808 16.699 11.6308C16.7015 12.2725 16.6549 12.9142 16.6757 13.5542C16.6874 13.935 16.7499 14.3258 16.8632 14.6883C16.9857 15.0783 17.3824 15.1108 17.6257 14.7775C17.719 14.6483 17.7949 14.5017 17.8565 14.3542C18.4015 13.0358 19.134 11.8233 19.9307 10.645C20.0215 10.51 20.1365 10.4283 20.289 10.3983C20.4015 10.3758 20.5174 10.36 20.6332 10.3567C21.349 10.3342 22.049 10.445 22.7315 10.6492C22.9407 10.7125 23.1282 10.8433 23.3257 10.9433V11.1517ZM15 0C6.715 0 0 6.71583 0 15C0 23.2842 6.715 30 15 30C23.2842 30 30 23.2842 30 15C30 6.71583 23.2842 0 15 0Z" fill="#AEAFB7"/>
</svg>
